<svg width="160" height="160" viewBox="0 0 160 160" fill="none" xmlns="http://www.w3.org/2000/svg">
<g clip-path="url(#clip0_24_2)">
<mask id="mask0_24_2" style="mask-type:luminance" maskUnits="userSpaceOnUse" x="0" y="0" width="160" height="160">
<path d="M0.149994 160V0.100006H160V160H0.149994Z" fill="white"/>
</mask>
<g mask="url(#mask0_24_2)">
<path fill-rule="evenodd" clip-rule="evenodd" d="M160 80C160 124.183 124.183 160 80 160C35.8175 160 0 124.183 0 80C0 35.8175 35.8175 0 80 0C124.183 0 160 35.8175 160 80Z" fill="#73BBA3"/>
</g>
<path fill-rule="evenodd" clip-rule="evenodd" d="M106.153 110C105.063 110.003 104.001 109.65 103.131 108.994C102.26 108.338 101.628 107.416 101.33 106.367C101.033 105.318 101.086 104.201 101.482 103.186C101.879 102.17 102.596 101.312 103.525 100.743L128.835 85.14L128.853 85L128.835 84.86L103.525 69.2575C102.43 68.5457 101.657 67.4341 101.371 66.1601C101.085 64.8861 101.308 63.5506 101.993 62.439C102.678 61.3273 103.771 60.5276 105.037 60.2106C106.304 59.8936 107.645 60.0845 108.773 60.7425L135.348 77.13L135.76 77.5425C136.744 78.5189 137.523 79.6808 138.054 80.961C138.585 82.2412 138.857 83.6141 138.853 85C138.856 86.3856 138.585 87.7583 138.055 89.0384C137.524 90.3185 136.745 91.4806 135.763 92.4575L135.348 92.87L108.773 109.258C107.955 109.76 107.048 110 106.153 110ZM53.8475 110C52.9525 110 52.045 109.76 51.2275 109.258L24.6525 92.87L24.2375 92.4575C23.2548 91.4806 22.4757 90.3185 21.9453 89.0384C21.4149 87.7583 21.1437 86.3856 21.1475 85C21.1475 82.1825 22.245 79.5325 24.24 77.5425L24.6525 77.13L51.2275 60.7425C52.3567 60.0466 53.716 59.8278 55.0065 60.1342C56.297 60.4406 57.4129 61.2471 58.1088 62.3763C58.8046 63.5054 59.0234 64.8648 58.717 66.1552C58.4106 67.4457 57.6042 68.5616 56.475 69.2575L31.165 84.86L31.1475 85L31.165 85.14L56.475 100.743C57.4005 101.315 58.1142 102.173 58.5079 103.187C58.9016 104.202 58.9539 105.317 58.6568 106.363C58.3598 107.41 57.7295 108.331 56.8616 108.988C55.9937 109.644 54.9356 109.999 53.8475 110ZM63.75 132.5C62.9395 132.5 62.1411 132.303 61.4237 131.926C60.7063 131.548 60.0914 131.002 59.6318 130.335C59.1723 129.667 58.8819 128.898 58.7858 128.093C58.6897 127.288 58.7906 126.472 59.08 125.715L91.58 40.715C91.8079 40.0929 92.1571 39.5224 92.6074 39.0364C93.0576 38.5505 93.6 38.1589 94.2029 37.8843C94.8058 37.6098 95.4573 37.4578 96.1195 37.4372C96.7816 37.4166 97.4413 37.5278 98.0601 37.7643C98.6789 38.0009 99.2446 38.358 99.7242 38.815C100.204 39.272 100.588 39.8198 100.854 40.4265C101.12 41.0332 101.263 41.6867 101.274 42.3491C101.286 43.0115 101.165 43.6695 100.92 44.285L68.42 129.285C68.0586 130.231 67.4186 131.044 66.5847 131.618C65.7509 132.192 64.7624 132.5 63.75 132.5Z" fill="#629986"/>
<path fill-rule="evenodd" clip-rule="evenodd" d="M106.153 105C105.063 105.002 104.003 104.649 103.133 103.993C102.264 103.337 101.632 102.415 101.334 101.367C101.037 100.32 101.09 99.2032 101.485 98.1883C101.881 97.1733 102.597 96.3154 103.525 95.745L128.833 80.1425V79.8575L103.525 64.255C102.951 63.9177 102.451 63.4692 102.053 62.936C101.655 62.4028 101.367 61.7955 101.207 61.1497C101.047 60.5039 101.017 59.8325 101.12 59.1751C101.222 58.5176 101.455 57.8872 101.804 57.3209C102.153 56.7545 102.612 56.2635 103.153 55.8767C103.695 55.4899 104.308 55.2151 104.957 55.0683C105.606 54.9216 106.278 54.9058 106.933 55.022C107.588 55.1382 108.214 55.384 108.773 55.745L135.35 72.13L135.763 72.5425C137.736 74.5224 138.845 77.2042 138.845 80C138.845 82.7958 137.736 85.4776 135.763 87.4575L135.35 87.87L108.773 104.255C107.955 104.76 107.048 105 106.153 105ZM53.8475 105C52.9525 105 52.045 104.76 51.2275 104.255L24.65 87.87L24.2375 87.4575C22.2636 85.4776 21.1551 82.7958 21.1551 80C21.1551 77.2042 22.2636 74.5224 24.2375 72.5425L24.65 72.13L51.2275 55.745C52.356 55.0491 53.7147 54.8301 55.0047 55.136C56.2947 55.4419 57.4104 56.2478 58.1063 57.3763C58.8021 58.5048 59.0212 59.8635 58.7153 61.1535C58.4094 62.4435 57.6035 63.5591 56.475 64.255L31.1675 79.8575V80.1425L56.475 95.745C57.4011 96.3165 58.1155 97.1746 58.5097 98.189C58.9039 99.2034 58.9563 100.319 58.6591 101.366C58.3619 102.412 57.7312 103.334 56.8628 103.99C55.9945 104.646 54.9358 105 53.8475 105ZM63.75 127.503C62.9392 127.503 62.1405 127.305 61.4228 126.928C60.7051 126.551 60.09 126.005 59.6304 125.337C59.1708 124.669 58.8805 123.899 58.7847 123.094C58.6888 122.289 58.7901 121.472 59.08 120.715L91.58 35.715C91.8079 35.0929 92.1571 34.5224 92.6074 34.0364C93.0576 33.5505 93.6 33.1589 94.2029 32.8843C94.8058 32.6098 95.4573 32.4578 96.1195 32.4372C96.7816 32.4166 97.4413 32.5278 98.0601 32.7643C98.6789 33.0009 99.2446 33.358 99.7242 33.815C100.204 34.272 100.588 34.8198 100.854 35.4265C101.12 36.0332 101.263 36.6867 101.274 37.3491C101.286 38.0115 101.165 38.6695 100.92 39.285L68.42 124.285C68.059 125.231 67.4192 126.045 66.5853 126.62C65.7514 127.194 64.7627 127.502 63.75 127.503Z" fill="#FFFFFE"/>
</g>
<defs>
<clipPath id="clip0_24_2">
<rect width="160" height="160" fill="white"/>
</clipPath>
</defs>
</svg>
